<svg xmlns="http://www.w3.org/2000/svg" width="23" height="23" viewBox="0 0 23 23">
    <g fill="none" fill-rule="evenodd">
        <path fill="#AEAFB0" d="M25.473 23.727l-4.182-4.17c1.35-1.719 2.082-3.842 2.079-6.027 0-5.434-4.406-9.84-9.84-9.84s-9.84 4.406-9.84 9.84 4.406 9.84 9.84 9.84c2.185.003 4.308-.73 6.027-2.079l4.17 4.182c.478.483 1.257.486 1.74.007l.006-.007c.483-.478.486-1.257.007-1.74l-.007-.006zM6.15 13.53c0-4.076 3.304-7.38 7.38-7.38 4.076 0 7.38 3.304 7.38 7.38 0 4.076-3.304 7.38-7.38 7.38-4.076 0-7.38-3.304-7.38-7.38z" transform="translate(-3.09 -2.805)"/>
    </g>
</svg>
