<?xml version="1.0" encoding="utf-8"?>
<!-- Generator: Adobe Illustrator 22.0.1, SVG Export Plug-In . SVG Version: 6.00 Build 0)  -->
<svg version="1.1" id="Layer_1" xmlns="http://www.w3.org/2000/svg" xmlns:xlink="http://www.w3.org/1999/xlink" x="0px" y="0px"
	 viewBox="0 0 32 32" style="enable-background:new 0 0 32 32;" xml:space="preserve">
<style type="text/css">
	.st0{clip-path:url(#SVGID_2_);}
</style>
<g>
	<g>
		<defs>
			<path id="SVGID_1_" d="M16,7.4c-4.7,0-8.6,3.8-8.6,8.6s3.8,8.6,8.6,8.6s8.6-3.8,8.6-8.6S20.7,7.4,16,7.4z M16,27
				c-0.7,0-1.2,0.5-1.2,1.2v2.4c0,0.7,0.5,1.2,1.2,1.2c0.7,0,1.2-0.5,1.2-1.2v-2.4C17.2,27.5,16.6,27,16,27z M25.5,23.7
				c-0.5-0.5-1.3-0.5-1.7,0c-0.5,0.5-0.5,1.3,0,1.7l1.7,1.7c0.2,0.2,0.6,0.4,0.9,0.4s0.6-0.1,0.9-0.4c0.5-0.5,0.5-1.3,0-1.7
				L25.5,23.7z M30.6,14.7h-2.4c-0.7,0-1.2,0.5-1.2,1.2c0,0.7,0.5,1.2,1.2,1.2h2.4c0.7,0,1.2-0.5,1.2-1.2
				C31.9,15.3,31.3,14.7,30.6,14.7z M16,4.9c0.7,0,1.2-0.5,1.2-1.2V1.3c0-0.7-0.5-1.2-1.2-1.2c-0.7,0-1.2,0.5-1.2,1.2v2.4
				C14.7,4.4,15.3,4.9,16,4.9z M6.5,8.2C6.7,8.4,7,8.5,7.3,8.5s0.6-0.1,0.9-0.4c0.5-0.5,0.5-1.3,0-1.7L6.5,4.7
				C6,4.2,5.2,4.2,4.7,4.7C4.3,5.2,4.3,6,4.7,6.4L6.5,8.2z M6.5,23.7l-1.7,1.7c-0.5,0.5-0.5,1.3,0,1.7c0.2,0.2,0.6,0.4,0.9,0.4
				s0.6-0.1,0.9-0.4l1.7-1.7c0.5-0.5,0.5-1.3,0-1.7C7.7,23.3,6.9,23.3,6.5,23.7z M5,16c0-0.7-0.5-1.2-1.2-1.2H1.3
				c-0.7,0-1.2,0.5-1.2,1.2c0,0.7,0.5,1.2,1.2,1.2h2.4C4.4,17.2,5,16.6,5,16z M24.6,8.5c0.3,0,0.6-0.1,0.9-0.4l1.7-1.7
				c0.5-0.5,0.5-1.3,0-1.7c-0.5-0.5-1.3-0.5-1.7,0l-1.7,1.7c-0.5,0.5-0.5,1.3,0,1.7C24,8.4,24.3,8.5,24.6,8.5z"/>
		</defs>
		<use xlink:href="#SVGID_1_"  style="overflow:visible;fill:#FFFFFF;"/>
		<clipPath id="SVGID_2_">
			<use xlink:href="#SVGID_1_"  style="overflow:visible;"/>
		</clipPath>
		<g class="st0">
			<g>
				<defs>
					<rect id="SVGID_3_" x="-405.1" y="-75.6" width="477" height="3669.7"/>
				</defs>
				<clipPath id="SVGID_4_">
					<use xlink:href="#SVGID_3_"  style="overflow:visible;"/>
				</clipPath>
			</g>
		</g>
	</g>
</g>
</svg>
